<?xml version="1.0" encoding="UTF-8" standalone="no"?>
<!-- Created with Inkscape (http://www.inkscape.org/) -->

<svg
   version="1.1"
   id="svg1"
   width="656.18738"
   height="682.66669"
   viewBox="0 0 656.18738 682.66669"
   sodipodi:docname="317a.svg"
   inkscape:version="1.3.2 (091e20ef0f, 2023-11-25)"
   xmlns:inkscape="http://www.inkscape.org/namespaces/inkscape"
   xmlns:sodipodi="http://sodipodi.sourceforge.net/DTD/sodipodi-0.dtd"
   xmlns="http://www.w3.org/2000/svg"
   xmlns:svg="http://www.w3.org/2000/svg">
  <defs
     id="defs1" />
  <sodipodi:namedview
     id="namedview1"
     pagecolor="#ffffff"
     bordercolor="#000000"
     borderopacity="0.25"
     inkscape:showpageshadow="2"
     inkscape:pageopacity="0.0"
     inkscape:pagecheckerboard="0"
     inkscape:deskcolor="#d1d1d1"
     showgrid="false"
     inkscape:zoom="0.9827586"
     inkscape:cx="348.00001"
     inkscape:cy="331.21053"
     inkscape:window-width="1920"
     inkscape:window-height="1011"
     inkscape:window-x="0"
     inkscape:window-y="0"
     inkscape:window-maximized="1"
     inkscape:current-layer="layer2" />
  <g
     inkscape:groupmode="layer"
     id="layer2"
     inkscape:label="Layer 1"
     transform="translate(-77.671824,-78.666669)">
    <path
       style="fill:#000000"
       d="m 77.796447,759.28369 c -2.27589,-5.93087 26.690293,-25.3197 81.146863,-54.31653 33.13342,-17.64275 37.8601,-20.8524 39.11373,-26.56014 0.49209,-2.24048 4.13057,-7.5934 8.0855,-11.89538 6.21448,-6.7598 7.1908,-8.55108 7.1908,-13.1932 0,-2.95428 -1.52766,-9.10949 -3.39481,-13.67825 -3.85746,-9.43892 -5.83739,-22.08739 -5.89736,-37.67423 -0.0394,-10.24498 0.2444,-11.26328 6.66383,-23.90946 3.68775,-7.2648 8.69447,-15.64947 11.12605,-18.63261 8.29077,-10.17137 8.2878,-10.14065 2.24498,-23.25884 -10.45302,-22.69216 -8.82292,-33.17007 11.82359,-75.99947 7.29092,-15.1244 14.1442,-30.7989 15.2295,-34.83224 1.0853,-4.03333 2.33236,-16.33333 2.77125,-27.33333 1.40056,-35.10268 6.01228,-57.89418 15.74589,-77.8176 6.79532,-13.90911 7.39251,-20.0752 3.82024,-39.44452 -3.67109,-19.9051 -7.95051,-28.09221 -22.99057,-43.98411 -20.24631,-21.39302 -48.95282,-42.61032 -77.08049,-56.97104 -7.66585,-3.91384 -14.14312,-7.79787 -14.39393,-8.63118 -1.3562,-4.50587 25.79601,-7.32388 39.49679,-4.09919 9.01768,2.12244 11.36217,1.80798 21.50171,-2.88401 6.33794,-2.93284 19.06607,-3.80642 22.62909,-1.55313 1.65975,1.04965 1.71117,2.18049 0.33333,7.33205 -2.25148,8.41802 -2.05101,11.99859 1.00739,17.99356 3.50059,6.86172 9.60812,11.01267 17.28959,11.75076 8.25262,0.79297 13.2272,-3.12396 14.32061,-11.27589 1.64039,-12.23005 -2.68089,-20.13836 -15.49836,-28.36331 -3.58124,-2.29807 -6.87313,-5.12114 -7.31533,-6.27349 -0.99,-2.57989 7.63536,-11.11224 11.23337,-11.11224 4.3215,0 6.66697,-3.73669 6.66697,-10.62146 0,-6.46607 3.82069,-20.60291 7.18962,-26.60219 l 1.81027,-3.22366 9.83513,9.30898 c 14.37108,13.60228 15.8285,14.355 29.43071,15.20031 6.44869,0.40075 12.40729,1.41104 13.24133,2.24508 1.13303,1.13303 0.59333,3.09161 -2.1346,7.74647 -6.42604,10.9652 -6.02634,25.85126 0.93163,34.69688 3.59935,4.57583 14.94819,9.88637 21.16362,9.90323 18.46993,0.0501 31.47916,-16.13393 28.5689,-35.54095 -0.81031,-5.40353 -2.11826,-7.36528 -10.15005,-15.22369 -5.07094,-4.96147 -9.21989,-9.95235 -9.21989,-11.09086 0,-2.90225 4.84585,-5.73689 12.66667,-7.40952 12.29566,-2.62965 16.13963,-5.02472 17.94245,-11.17938 2.5972,-8.866656 10.53135,-22.209241 13.20668,-22.209241 3.48127,0 8.70173,6.142406 14.16508,16.666667 5.41753,10.436004 10.04232,15.333334 14.48001,15.333334 9.13051,0 24.87245,6.80525 24.87245,10.75238 0,0.52481 -3.22268,4.22878 -7.16151,8.23105 -8.02996,8.15928 -12.83849,18.72127 -12.83849,28.19987 0,16.73785 22.92957,28.24854 39.42428,19.79105 7.13306,-3.65739 14.69386,-12.16748 16.66988,-18.76284 1.97169,-6.58092 1.01767,-11.86227 -4.09409,-22.66456 -2.20004,-4.64918 -4.00007,-9.22571 -4.00007,-10.17007 0,-3.2992 3.72098,-4.73658 17.13479,-6.619 14.03432,-1.9695 16.3144,-2.99585 27.43854,-12.35111 2.882,-2.42372 6.64685,-4.40677 8.36634,-4.40677 3.78758,0 5.15448,3.11424 7.20979,16.42625 1.90135,12.31482 3.92594,16.13509 12.76039,24.07797 5.72717,5.14919 7.14984,7.22097 6.82889,9.94465 -0.32963,2.79733 -1.65159,3.88036 -7.07207,5.79389 -3.75441,1.32538 -8.52459,4.36063 -10.91976,6.94821 -10.51031,11.35462 -8.53243,31.23863 3.44914,34.6749 3.66019,1.04973 5.04332,0.66923 9.85166,-2.71019 6.34562,-4.45987 14.28562,-18.18443 14.28562,-24.69316 0,-2.18414 0.63193,-5.15193 1.40429,-6.5951 1.35313,-2.52834 2.50683,-2.59499 31.66667,-1.82951 16.64431,0.43694 31.76238,1.10777 33.59571,1.49074 l 3.33334,0.69631 -3.33334,2.70587 c -1.83333,1.48822 -7.83333,4.98233 -13.33333,7.76467 -19.7853,10.00901 -45.80152,31.33432 -63.27189,51.86354 -21.56064,25.33563 -25.27035,34.71883 -25.34541,64.10763 l -0.0494,19.33333 5.55428,11.40819 c 10.46691,21.49847 12.44572,34.12442 12.44572,79.41092 v 30.88906 l 8.00465,12.19041 c 13.62249,20.74591 24.14528,39.68917 26.89344,48.41392 4.19218,13.30919 4.68566,30.14483 1.27853,43.61821 -3.40504,13.46512 -3.4684,15.89521 -0.72099,27.65323 1.45824,6.24079 1.82503,11.37731 1.17224,16.41607 -2.36098,18.22384 -1.87027,21.08386 5.60485,32.66667 7.75704,12.01965 12.44925,24.48875 12.4023,32.95794 -0.0174,3.1398 -1.51463,9.30873 -3.32716,13.70873 -1.81253,4.4 -3.29829,8.72117 -3.30168,9.60261 -0.009,2.3527 8.64217,7.81528 33.32716,21.04346 40.16958,21.52606 80.3552,47.52053 90.04614,58.24724 3.88625,4.30162 4.43877,5.6216 3.26845,7.80838 -1.39628,2.60898 -4.22205,2.63164 -328.07003,2.63164 -292.65345,0 -326.743488,-0.21338 -327.448133,-2.04966 z m 643.536903,-7.3103 c -2.56667,-2.17519 -7.96667,-6.18887 -12,-8.91929 -4.03333,-2.73042 -8.53701,-6.00171 -10.00818,-7.26953 -1.47117,-1.26782 -7.17117,-4.55093 -12.66667,-7.29579 -5.4955,-2.74487 -10.89182,-5.88657 -11.99182,-6.98157 -5.53232,-5.50716 -43.41018,-26.30905 -58.66667,-32.21876 -2.56666,-0.99422 -6.21584,-2.92913 -8.10927,-4.29981 -1.89344,-1.37068 -4.29344,-2.64027 -5.33334,-2.82132 -1.03989,-0.18104 -3.99072,-1.63899 -6.55739,-3.23989 -12.74281,-7.94803 -47.51314,-17.73198 -64.12819,-18.04489 l -11.46152,-0.21586 -11.20514,7.50447 c -35.70331,23.91174 -76.60643,34.17911 -116.96852,29.36106 -7.09681,-0.84715 -15.3033,-1.80572 -18.23663,-2.13015 -2.93333,-0.32443 -6.23333,-0.82878 -7.33333,-1.12078 -1.1,-0.292 -3.8,-0.99105 -6,-1.55343 -11.73776,-3.00052 -23.52967,-8.81616 -40.66667,-20.05633 -4.76667,-3.12646 -10.13365,-6.44027 -11.92662,-7.36402 -6.88232,-3.54582 -51.86211,1.52201 -58.89153,6.63525 -1.91665,1.39417 -5.81665,2.96513 -8.66667,3.49101 -6.88726,1.27083 -35.08357,12.66751 -59.91744,24.21807 -29.17903,13.57155 -77.18546,41.46451 -91.700048,53.28007 l -3.768967,3.06812 320.435645,-0.0359 320.43564,-0.0359 z M 437.69044,690.63632 c 26.31133,-2.49507 42.84667,-9.94024 58.97624,-26.5545 7.25245,-7.47039 7.78531,-8.40002 5.70247,-9.94858 -1.97485,-1.46827 -2.16615,-3.09563 -1.36211,-11.58736 1.27523,-13.46812 0.79704,-29.74614 -1.0371,-35.30364 -3.23363,-9.798 -8.76102,-8.7497 -26.00745,4.93246 -13.33339,10.57781 -23.68489,16.13777 -37.34263,20.05734 -8.91719,2.5591 -13.82641,3.05203 -30.61985,3.07452 -28.48816,0.0382 -37.12121,-2.92288 -73.29599,-25.13966 -12.86845,-7.90316 -14.81676,-8.72829 -16.18645,-6.85513 -2.38793,3.26569 -3.32693,14.55603 -2.5131,30.21686 0.40572,7.8074 0.15103,16.80623 -0.56598,19.99741 -1.20152,5.34759 -1.02694,6.09095 2.22851,9.48891 8.1254,8.48109 30.93452,21.95332 42.99968,25.3978 2.56666,0.73276 15.46666,1.72186 28.66666,2.198 13.2,0.47614 26.7,0.98301 30,1.12638 3.3,0.14336 12.46069,-0.352 20.3571,-1.10081 z m -231.15427,-8.50568 c 1.76156,-0.97619 4.18977,-1.5168 5.39602,-1.20136 1.35767,0.35504 2.89005,-0.72859 4.02247,-2.84453 1.17366,-2.19302 2.96226,-3.41807 4.99044,-3.41807 3.98148,0 12.26141,-4.17218 15.59489,-7.85812 1.39699,-1.5447 3.83231,-2.80854 5.41183,-2.80854 1.57951,0 4.03652,-0.88092 5.46001,-1.9576 1.4235,-1.07668 3.67595,-1.97668 5.00544,-2 3.81854,-0.067 16.91461,-6.95327 19.51823,-10.26323 1.90486,-2.42164 3.25174,-2.86038 6.94245,-2.26146 3.23631,0.52518 5.08852,0.12926 6.31632,-1.35014 1.48776,-1.79264 2.00486,-1.82559 3.60098,-0.22947 1.02507,1.02507 1.50129,2.80834 1.05827,3.96283 -1.12941,2.94321 1.26599,2.61532 4.14649,-0.5676 2.66538,-2.94522 6.81925,-3.54225 7.63424,-1.09727 0.28773,0.86317 1.14906,1.18256 1.91409,0.70975 1.9232,-1.18861 2.2869,-80.75824 0.43333,-94.804 -1.08019,-8.18534 -2.869,-13.76674 -7.37068,-22.99779 -3.26937,-6.70411 -5.94432,-13.10411 -5.94432,-14.22222 0,-1.1181 -0.62427,-2.24101 -1.38728,-2.49535 -0.91653,-0.3055 -0.66618,-3.57174 0.73777,-9.62543 1.16877,-5.03966 1.93665,-10.73157 1.7064,-12.64869 -0.32439,-2.70085 -1.41861,-0.93389 -4.85982,7.84766 -9.7743,24.94282 -19.79034,45.01165 -27.82608,55.75424 -6.57449,8.78912 -4.45861,2.7734 3.98692,-11.33533 12.00697,-20.0583 11.90022,-19.80298 12.38319,-29.61913 0.23813,-4.83988 1.9688,-14.72671 3.84593,-21.97074 3.4919,-13.47556 4.35598,-22.16237 2.20449,-22.16237 -1.55451,0 -17.5761,17.24121 -24.47055,26.33333 -2.91941,3.85 -5.53593,7 -5.81449,7 -2.37907,0 1.24973,-5.65169 10.78645,-16.79941 19.03963,-22.2559 22.04041,-30.36052 22.04041,-59.52763 0,-14.53762 0.44426,-19.11148 2.10208,-21.64163 3.08101,-4.70222 5.81852,-17.53389 5.69575,-26.698 -0.0589,-4.4 -0.38156,-6.95 -0.71693,-5.66666 -0.64536,2.46952 -2.46098,3.08174 -3.61272,1.2182 -0.37905,-0.61333 0.48096,-4.96333 1.91113,-9.66667 3.18689,-10.48057 3.48071,-15.59181 0.76682,-13.33948 -3.09533,2.5689 -7.21606,13.65188 -9.74769,26.2171 l -2.39844,11.90418 -0.38726,-11 c -0.21299,-6.05 -0.94623,-11 -1.62942,-11 -1.29485,0 -3.75964,7.90866 -7.06423,22.66667 l -1.94063,8.66666 -0.12949,-6.66666 c -0.20151,-10.37494 2.12604,-24.06938 6.64149,-39.0761 4.17831,-13.88624 4.40178,-17.73963 0.69821,-12.03959 -5.34887,8.23228 -10.86946,31.05507 -16.7649,69.30809 -1.54207,10.00582 -3.99326,21.64975 -5.4471,25.8754 -4.99597,14.52104 -3.01861,16.17227 6.73236,5.62198 3.54657,-3.83729 6.8149,-6.61029 7.26297,-6.16222 0.44808,0.44807 -6.30876,7.93767 -15.01519,16.64356 -13.15132,13.1505 -16.69963,17.59125 -20.97001,26.24428 -4.41261,8.94125 -5.22258,11.98638 -5.7227,21.51484 -0.76947,14.6604 2.79429,25.97433 11.04215,35.05565 3.17069,3.49109 6.18159,5.93973 6.6909,5.44142 0.5093,-0.49831 -0.0317,-5.11676 -1.20224,-10.26321 -1.17054,-5.14645 -2.07606,-11.63874 -2.01229,-14.42731 0.0932,-4.07667 0.5733,-3.03559 2.44997,5.31317 1.2837,5.71081 2.96319,11.01249 3.73221,11.78151 0.97539,0.97539 3.74698,-0.84075 9.16533,-6.00577 4.66178,-4.44383 8.12203,-6.82972 8.65483,-5.96763 0.4955,0.80174 -7.78439,10.06051 -18.74027,20.95581 -14.59609,14.51538 -21.97432,23.07694 -28.78035,33.39617 l -9.15236,13.87671 -0.007,16.12329 c -0.006,13.47597 0.48082,17.39992 2.96592,23.89855 4.43159,11.58873 6.61037,15.27709 9.58151,16.22009 2.1549,0.68395 2.68129,2.01128 2.68129,6.76116 0,3.25059 0.58737,5.91015 1.30526,5.91015 0.71789,0 5.77368,-1.5 11.23509,-3.33333 5.46141,-1.83333 11.72728,-3.33333 13.92417,-3.33333 6.02381,0 13.03724,-8.81626 15.01647,-18.87651 1.44716,-7.35577 1.74833,-7.79016 5.401,-7.79016 2.52938,0 4.10996,-0.80765 4.56633,-2.33333 1.4754,-4.93239 4.00896,-8.79305 7.11012,-10.83449 l 3.2251,-2.12303 -0.84399,5.20091 c -2.39918,14.78439 -15.91668,31.75408 -30.99555,38.91142 -5.228,2.48152 -10.35412,4.53179 -11.39139,4.55615 -1.03727,0.0244 -4.28594,1.81326 -7.21928,3.97534 -6.83908,5.04088 -11.97007,7.57121 -18.82594,9.28392 -6.76715,1.69056 -12.50739,6.03215 -12.50739,9.45988 0,3.00033 0.84697,3.11436 5.20283,0.70052 z m 25.94162,-42.80873 c -0.4602,-1.19925 -0.53573,-7.45953 -0.16784,-13.91174 0.51382,-9.01164 1.44681,-13.23958 4.02448,-18.23739 1.84558,-3.57835 4.00488,-8.90742 4.79845,-11.84236 0.79357,-2.93494 3.63172,-8.93494 6.307,-13.33333 2.67528,-4.39839 6.96778,-11.89708 9.5389,-16.66374 2.57111,-4.76667 6.9747,-10.91203 9.78574,-13.65636 2.81104,-2.74432 6.66402,-7.63973 8.56217,-10.87868 3.26358,-5.56888 7.33998,-8.93733 7.33998,-6.06524 0,2.44589 -6.76681,14.27802 -9.5973,16.78139 -4.60705,4.07461 -14.4027,17.93747 -14.4027,20.38278 0,1.24879 -1.8,3.99504 -4,6.10277 -2.2,2.10774 -4,4.53063 -4,5.38421 0,0.85357 -1.5,4.37307 -3.33333,7.8211 -1.83333,3.44802 -3.33333,7.02509 -3.33333,7.94904 0,0.92395 -1.41201,4.6422 -3.1378,8.26278 -4.11817,8.63962 -4.76915,11.64018 -5.00398,23.06481 -0.19161,9.32158 -1.69101,13.24256 -3.38044,8.83996 z m 54.998,-8.32189 c 4.87391,-11.18772 7.28193,-21.42097 8.04738,-34.19862 0.76903,-12.83731 -1.17985,-43.28466 -3.08903,-48.2599 -0.836,-2.17857 -0.97248,-2.16264 -1.90691,0.22267 -0.55355,1.41305 -1.04863,6.2701 -1.10018,10.79346 -0.11702,10.27028 -0.80201,12.05069 -5.58862,14.52594 -2.20205,1.13872 -3.83842,3.07362 -3.83842,4.53866 0,3.08501 -2.93611,5.23612 -3.76261,2.75663 -0.32266,-0.96797 -2.59349,1.7758 -5.0463,6.09727 -3.93927,6.9404 -4.36837,8.63863 -3.67743,14.554 0.73093,6.25771 0.46655,7.0746 -4.03239,12.45948 -2.64804,3.16949 -4.81461,6.89211 -4.81461,8.27249 0,3.27657 -6.25783,7.51342 -8.21161,5.55964 -0.98846,-0.98847 -0.60306,-1.83881 1.29342,-2.85378 1.48579,-0.79517 3.09628,-3.24344 3.57886,-5.44061 0.48257,-2.19716 2.36186,-5.1625 4.17618,-6.58965 4.17303,-3.28251 6.32168,-10.03629 3.84648,-12.09052 -1.29215,-1.07239 -1.9716,-1.00255 -2.56675,0.26385 -0.44518,0.94728 -0.49403,-0.37768 -0.10856,-2.94435 0.38548,-2.56667 2.51144,-7.06667 4.72436,-10 8.94794,-11.86092 18.03734,-35.16025 19.2903,-49.44782 1.47082,-16.77192 1.58481,-16.89004 6.68926,-6.93225 3.8236,7.4591 4.76657,11.17069 6.08151,23.93732 2.23263,21.67634 2.37559,72.04583 0.20655,72.77294 -0.91666,0.30728 -1.66666,2.0087 -1.66666,3.78092 0,2.87217 -0.58135,3.22223 -5.35123,3.22223 h -5.35123 z m -66.85971,-49.30637 c 2.51933,-5.18805 10.972,-15.74878 24.83359,-31.02697 11.91996,-13.13814 23.88367,-27.94113 23.88367,-29.55185 0,-0.61315 0.62111,-1.11482 1.38024,-1.11482 3.85908,0 -16.36222,25.78328 -48.62534,62 l -3.56333,4 z m 23.41979,-95.48919 c -0.0197,-0.62089 3.15684,-6.02693 7.05904,-12.01343 6.70849,-10.29174 14.83219,-19.6451 22.19305,-25.55236 l 3.28796,-2.63866 -2.08082,3.33333 c -1.14446,1.83334 -3.82404,4.50167 -5.95463,5.92963 -2.13059,1.42796 -6.82545,7.19978 -10.43303,12.82628 -7.03502,10.97205 -14.0131,19.95537 -14.07157,18.11521 z m 349.90581,179.7325 c 4.13007,-4.45643 7.53323,-11.76715 8.36526,-17.97044 0.85944,-6.40763 -1.31278,-13.15098 -7.72031,-23.9665 -3.68012,-6.21184 -5.59013,-11.44009 -6.7432,-18.45807 -1.64859,-10.03389 -3.54983,-12.55201 -7.19373,-9.52784 -2.95212,2.45004 -2.40557,10.73898 1.14905,17.4266 1.72264,3.24095 5.62264,10.57493 8.66667,16.29772 4.3135,8.10942 5.53459,11.84096 5.53459,16.9132 0,11.66671 -2.84927,15.37853 -10.61295,13.8258 -5.22824,-1.04565 -5.73767,-4.56533 -1.08094,-7.46829 2.05058,-1.27831 4.73418,-4.43349 5.96355,-7.0115 l 2.23521,-4.68729 -8.9475,-17.65517 c -4.92112,-9.71034 -8.93471,-19.1877 -8.9191,-21.06079 0.0156,-1.8731 1.88526,-6.33359 4.15476,-9.91222 6.33762,-9.9934 6.79754,-11.92024 7.97748,-33.42187 0.60584,-11.04018 1.73676,-22.90754 2.51314,-26.37191 1.13722,-5.07449 1.02007,-7.05601 -0.60269,-10.19407 -1.10786,-2.14237 -2.01429,-5.12501 -2.01429,-6.62809 0,-1.50309 -0.525,-2.73288 -1.16667,-2.73288 -1.87541,0 -2.82164,7.39168 -1.525,11.91281 0.86149,3.00385 0.6157,5.53648 -0.88534,9.12272 -1.58508,3.78701 -1.87426,7.4153 -1.21925,15.2978 0.96813,11.65074 -0.3527,13.1828 -4.02327,4.66667 l -2.44241,-5.66667 -0.46187,5.20723 c -0.25403,2.86398 0.5515,9.34238 1.79006,14.39646 1.23857,5.05408 2.01459,9.42658 1.7245,9.71667 -0.29009,0.2901 -2.37888,-0.6448 -4.64175,-2.07755 -3.45906,-2.19012 -4.24225,-3.68526 -4.91766,-9.38801 -0.44184,-3.73066 -1.87464,-8.97417 -3.18401,-11.65224 -1.91107,-3.90876 -3.23542,-4.95164 -6.714,-5.28704 -5.15791,-0.49731 -5.34383,-1.49024 -1.21331,-6.47989 1.71601,-2.07293 3.76036,-4.94493 4.54299,-6.38222 1.23544,-2.26887 1.54082,-1.82957 2.31715,3.33333 0.92519,6.15282 3.98411,11.7601 5.55726,10.18695 0.49406,-0.49406 0.10223,-9.60222 -0.87075,-20.24036 -0.97298,-10.63813 -1.41094,-19.70017 -0.97324,-20.13787 1.92169,-1.92169 3.64309,1.45361 3.68045,7.21656 0.051,7.8723 2.06913,5.09076 4.03942,-5.56752 2.34281,-12.67339 -2.49335,-33.07138 -8.27604,-34.90673 -3.87663,-1.2304 -14.47059,-12.2875 -14.47059,-15.10321 0,-1.42904 -2.01266,-7.30143 -4.47256,-13.04974 -6.85331,-16.01482 -12.17289,-41.07116 -9.12016,-42.95785 0.92688,-0.57284 0.95345,-4.50405 0.0823,-12.16991 -0.70779,-6.22805 -1.14483,-14.32373 -0.97121,-17.9904 0.61344,-12.95511 -0.0322,-17.64859 -2.51834,-18.3059 -1.5164,-0.40092 -3.17572,-3.48181 -4.73934,-8.7996 -1.3233,-4.50048 -3.1233,-8.952 -4,-9.89227 -0.8767,-0.94027 -2.73848,-3.95042 -4.13729,-6.68924 -1.39881,-2.73881 -3.04881,-4.97966 -3.66667,-4.97966 -1.63094,0 -1.43979,1.06212 1.9196,10.66667 2.73976,7.83299 3.01554,10.91119 2.86701,32 -0.0904,12.83334 -0.9478,33.23334 -1.90534,45.33334 -1.64944,20.84298 -1.58565,23.07752 1.21289,42.48846 4.15117,28.79289 4.1037,29.77786 -1.69885,35.25038 l -4.79409,4.5214 0.83736,-11.79679 c 0.48606,-6.8476 0.32601,-11.79678 -0.38149,-11.79678 -0.67036,0 -2.55687,6.45 -4.19224,14.33333 -1.63537,7.88333 -3.34671,15.68333 -3.80298,17.33333 -1.02238,3.69716 2.65843,4.23384 4.6485,0.67778 0.71477,-1.27723 1.74043,-1.88138 2.27925,-1.34256 0.53882,0.53881 -0.74011,6.53381 -2.84206,13.32222 -2.10195,6.78841 -3.73024,14.74256 -3.61844,17.6759 0.11181,2.93333 0.43,15.53333 0.7071,28 0.37088,16.68612 1.10728,24.5141 2.791,29.66858 2.09188,6.40402 2.11195,7.51807 0.23497,13.0466 -2.65681,7.82543 -2.60965,17.45335 0.12139,24.78385 1.19549,3.20887 2.24549,7.3263 2.33334,9.14986 0.26499,5.50118 10.15971,8.77453 10.15971,3.36101 0,-1.00799 -1.74555,-4.72258 -3.87899,-8.25464 -3.06728,-5.0781 -4.00772,-8.46091 -4.49417,-16.16586 -0.39884,-6.31737 -0.0768,-10.30285 0.91577,-11.33333 0.84202,-0.87417 3.18379,-5.30766 5.20394,-9.85219 4.1612,-9.36103 4.02338,-10.92413 -2.15164,-24.40388 -3.04681,-6.65101 -4.31842,-12.07645 -5.46753,-23.32764 l -1.49736,-14.66096 4.32811,-10.67237 c 2.38046,-5.8698 4.721,-13.56007 5.20121,-17.08948 0.4802,-3.52941 1.34248,-5.92941 1.91616,-5.33333 1.16204,1.2074 -1.48075,20.40125 -4.64708,33.75044 -3.21651,13.56074 -2.70098,19.85511 2.75975,33.69538 4.15469,10.5301 4.84458,13.79486 4.78374,22.63796 -0.0391,5.68333 0.15458,10.33333 0.43042,10.33333 0.27585,0 2.02316,-2.23928 3.88293,-4.97618 4.56251,-6.71433 4.47997,-15.56451 -0.27937,-29.95499 -5.06206,-15.30581 -4.87455,-30.72852 0.68854,-56.63297 4.51016,-21.00152 7.69356,-29.13118 6.26639,-16.00291 -0.46434,4.27146 -2.3754,13.87146 -4.2468,21.33334 -4.78043,19.06118 -4.58875,31.60087 0.79954,52.30606 4.70716,18.08785 4.7747,17.38818 -3.68279,38.14977 -4.95113,12.15412 -5.45299,20.62722 -1.49833,25.29684 2.61604,3.08897 2.70312,3.09941 4.66667,0.55954 1.10049,-1.4235 2.00089,-3.59149 2.00089,-4.81776 0,-1.22627 2.96479,-6.24591 6.58843,-11.15476 11.48687,-15.56095 11.65825,-19.33347 1.89753,-41.77067 -9.47506,-21.78055 -9.30477,-24.14708 4.2457,-59.00198 2.70842,-6.96666 5.09829,-15.36666 5.31084,-18.66666 0.48404,-7.51529 2.51023,-7.30095 2.96036,0.31316 0.33822,5.72125 -3.3843,17.80054 -10.93946,35.49762 -4.39636,10.29797 -5.66099,20.61889 -3.3897,27.66399 2.36008,7.3205 4.25385,9.49579 5.50313,6.32116 0.53299,-1.35443 1.0509,-4.5626 1.1509,-7.12927 0.14701,-3.77324 1.05581,-1.9864 4.74699,9.33334 5.88058,18.03394 6.51532,18.98503 9.82146,14.71634 l 2.54322,-3.28366 0.96205,5.12818 c 0.52913,2.82049 0.26554,9.09814 -0.58575,13.95032 -1.59608,9.09725 -1.01037,13.36124 2.87087,20.90005 2.77652,5.39303 5.00813,13.9221 3.64269,13.9221 -0.61735,0 -1.79988,-2.05263 -2.62785,-4.5614 -1.75272,-5.31077 -8.7784,-15.4386 -10.70977,-15.4386 -0.72874,0 -1.32497,1.13353 -1.32497,2.51896 0,2.85818 -4.68593,9.23032 -5.89947,8.02236 -0.43762,-0.43561 0.0936,-3.31263 1.18061,-6.39338 1.08695,-3.08076 2.33087,-8.72435 2.76425,-12.54132 l 0.78798,-6.93995 -3.37338,7.92635 c -2.07298,4.87082 -5.43781,9.75369 -8.72872,12.66666 -2.94543,2.60718 -5.96492,6.42938 -6.70997,8.49379 -3.09317,8.57064 -0.5842,16.9132 5.08654,16.9132 3.2242,0 6.1374,5.02962 4.23847,7.31769 -2.0505,2.47071 3.22382,6.01564 8.95036,6.01564 5.27466,0 5.6378,-2.21903 0.97369,-5.94991 -2.44939,-1.9593 -3.53981,-4.29742 -3.91101,-8.38611 -0.28308,-3.11815 -0.92087,-7.01815 -1.41731,-8.66667 -0.72012,-2.39131 0.2728,-1.87308 4.91101,2.56318 3.19749,3.05827 7.89262,6.39366 10.43362,7.41199 4.33919,1.73896 4.62285,2.23162 4.66667,8.10511 0.0257,3.43949 -0.55334,6.27318 -1.28668,6.29709 -3.52417,0.11489 4.40384,3.95866 8.16499,3.95866 3.15097,0 4.5513,0.72251 5.16835,2.66666 1.12616,3.54822 2.81667,3.36154 6.60833,-0.72972 z m -150.73522,-40.4438 c 4.33021,-1.5537 9.84018,-4.32526 12.24437,-6.15902 2.40419,-1.83377 4.97288,-3.33412 5.70819,-3.33412 2.60099,0 27.92544,-26.08128 30.6962,-31.61355 1.5463,-3.08746 2.81146,-8.03746 2.81146,-11 0,-8.21772 -3.64436,-7.15619 -16.07097,4.68115 -18.03667,17.18136 -31.5198,21.30243 -65.92903,20.15097 -21.47638,-0.71867 -48.01436,-5.01516 -58.7922,-9.51843 -2.49307,-1.04167 -9.04595,-6.1656 -14.56195,-11.38651 -12.31812,-11.65913 -15.75294,-12.1588 -16.38274,-2.3832 -0.48453,7.52077 1.38719,11.50106 9.81769,20.87781 13.53348,15.05249 34.82395,26.93593 56.58586,31.58385 13.25472,2.83094 43.67966,1.75851 53.87312,-1.89895 z m -13.87312,-41.58058 c 19.01174,-1.8981 25.995,-3.66397 32.97186,-8.33767 8.40794,-5.63236 14.46322,-14.11672 20.29793,-28.44042 3.66407,-8.99498 5.66156,-12.21076 8.40031,-13.52377 3.8921,-1.86595 5.95706,-7.20626 9.59302,-24.80904 3.01002,-14.57246 6.3464,-42.18644 5.50303,-45.54666 -0.55725,-2.22029 -1.45497,-2.82522 -3.42725,-2.30946 -3.62257,0.94732 -3.45868,-0.0222 2.55911,-15.13827 2.87724,-7.22734 5.62722,-16.44061 6.11107,-20.47395 0.94017,-7.83721 -1.19193,-51.485 -3.48448,-71.33333 -1.97779,-17.12322 -7.40092,-46.07633 -8.91381,-47.58922 -2.11391,-2.11391 -53.60763,-2.74034 -108.27745,-1.3172 -56.8507,1.47991 -60.74098,2.05306 -70.47211,10.38254 -9.66629,8.27398 -13.0835,20.48247 -17.43973,62.30594 -3.69316,35.45748 -3.61051,46.54156 0.43744,58.66064 4.50978,13.50176 5.71056,19.24291 8.10767,38.76407 5.30821,43.22812 16.79386,76.20677 32.08267,92.1187 8.11538,8.44613 22.22603,15.87571 33.95072,17.87581 7.87908,1.34409 31.49028,0.75893 52,-1.28871 z m -12,-27.31483 c -2.89967,-1.08785 -7.31716,-1.46297 -11.66666,-0.99068 -3.85,0.41805 -7,0.34375 -7,-0.16512 0,-0.50887 2.76143,-2.14673 6.13651,-3.63969 7.06866,-3.1268 12.98579,-2.59189 18.39489,1.6629 6.39433,5.02978 3.42285,6.61697 -5.86474,3.13259 z m -30,-18.20885 c -1.46666,-0.84152 -6.56666,-4.51409 -11.33333,-8.16128 -4.76667,-3.64719 -10.61667,-7.44848 -13,-8.44732 -7.03727,-2.94928 -4.57126,-7.08591 4.26667,-7.15715 2.97,-0.0239 8.7,-1.26293 12.73333,-2.7533 20.59634,-7.61066 32.39426,-8.0214 53.62334,-1.86687 6.16044,1.78597 14.64001,3.65144 18.84351,4.14548 5.46291,0.64205 8.02075,1.60462 8.96818,3.3749 1.15211,2.15275 0.81186,2.47665 -2.60172,2.47665 -2.64211,0 -6.19935,1.85428 -10.87094,5.66667 -11.91543,9.72396 -15.13063,11.57796 -22.50324,12.97614 -9.66912,1.83371 -34.77875,1.66648 -38.1258,-0.25392 z m 31.25147,-6.39954 c 14.29929,-1.28854 18.36096,-2.96949 16.08285,-6.65601 -1.00273,-1.62266 -6.21106,-2.14931 -27.60555,-2.79138 -27.33594,-0.82038 -31.51094,-0.55513 -30.67625,1.94892 0.86557,2.59673 9.36687,6.76007 15.59643,7.63804 8.87051,1.25018 11.32279,1.23731 26.60252,-0.13957 z m 22.03013,-13.23897 c 2.54087,-4.11122 -16.95158,-7.33753 -38.19276,-6.3215 -15.92202,0.7616 -22.08358,2.21623 -20.46701,4.8319 0.32586,0.52725 10.03606,1.07608 21.57823,1.21961 11.54217,0.14354 21.13884,0.41407 21.32595,0.60117 1.04089,1.04089 15.09012,0.74558 15.75559,-0.33118 z m -54.61493,-33.322 c -9.19153,-2.21819 -12.90112,-6.67426 -10.02695,-12.04468 1.82554,-3.41106 3.32166,-3.42232 6.69362,-0.0504 1.46666,1.46666 4.41321,2.66666 6.54787,2.66666 2.13466,0 7.68466,1.19226 12.33333,2.64947 10.81779,3.39102 13.24845,3.3481 17.90463,-0.31613 3.03775,-2.39061 5.66111,-3.03484 12.91447,-3.17149 7.18334,-0.13533 9.50967,-0.69753 11.03436,-2.66666 1.88323,-2.43219 1.98295,-2.42922 3.94998,0.11756 1.10988,1.43702 1.83294,3.23702 1.6068,4 -0.75329,2.54152 -12.18193,7.26205 -20.95811,8.65661 -9.70472,1.54211 -35.85855,1.64114 -42,0.15902 z m 29.31962,-19.09505 c 0.47566,-2.38333 1.76334,-7.56331 2.86153,-11.51108 2.50499,-9.00498 4.73739,-7.53755 5.54632,3.64578 0.50907,7.03781 0.24852,8.06425 -2.54349,10.01984 -5.02256,3.51794 -6.86161,2.84228 -5.86436,-2.15454 z m 4.23064,-31 c -1.67279,-5.28704 -3.50452,-28.33336 -3.52715,-44.37766 -0.0211,-14.94794 0.27444,-16.96483 3.38535,-23.10393 1.87466,-3.69945 3.76401,-9.72833 4.19857,-13.39751 0.62931,-5.31352 1.40551,-6.9052 3.81395,-7.82089 4.9542,-1.88358 35.24423,-4.29617 47.45701,-3.77993 9.91478,0.41911 12.05686,0.96753 16.9044,4.32792 10.38239,7.19724 7.65159,8.81577 -14.89144,8.8261 -16.03387,0.007 -25.31118,1.43645 -26.99326,4.15811 -1.52268,2.46375 1.28656,3.77467 14.06596,6.56382 17.10729,3.73371 23.75456,6.88468 31.87916,15.11147 l 6.94634,7.03371 -5.21404,1.56216 c -6.13025,1.83667 -12.24178,6.3094 -12.24178,8.95917 0,3.19265 -8.23706,6.33959 -18.30275,6.99251 -11.75304,0.76236 -14.06896,-0.48857 -21.69503,-11.71844 -2.9892,-4.4018 -6.34317,-8.00327 -7.45327,-8.00327 -3.76954,0 -5.88228,8.45676 -5.88228,23.54534 0,12.54171 -0.22791,13.98599 -1.85572,11.75983 -1.56282,-2.1373 -2.18858,-2.26159 -3.96471,-0.78753 -1.15995,0.96267 -2.46435,3.94002 -2.89866,6.61633 -0.43431,2.67632 -1.26155,6.06603 -1.8383,7.53269 l -1.04864,2.66667 z m 51.78307,-35.18672 c 2.93334,-1.35382 6.78793,-4.04064 8.56576,-5.97072 l 3.23242,-3.50922 h -3.97338 c -2.18536,0 -6.00652,1.5 -8.49146,3.33333 -5.77306,4.25922 -9.96952,4.22296 -13.99531,-0.12094 -4.29514,-4.63453 -6.6752,-3.05566 -3.81376,2.52994 1.19963,2.34172 2.84743,4.69848 3.66178,5.23725 2.59793,1.7188 9.31354,1.03897 14.81395,-1.49964 z m 20.23808,-16.67365 c -0.99007,-2.5801 -14.66426,-9.53707 -22.74468,-11.57175 -5.11744,-1.28858 -7.28115,-1.1748 -12.95586,0.6813 -7.20996,2.35826 -17.2042,8.31926 -17.2042,10.26134 0,2.24953 4.87447,1.11246 9.33333,-2.17718 2.73958,-2.0212 6.30856,-3.33334 9.06658,-3.33334 6.50805,0 19.76384,3.66726 26.80551,7.41582 6.10324,3.24901 9.23651,2.72966 7.69932,-1.27619 z m -138.90474,21.70669 c -10.40487,-1.5111 -17.44371,-3.96693 -23.85273,-8.32215 -2.85234,-1.93829 -5.70234,-3.52417 -6.33334,-3.52417 -2.20587,0 -1.12005,-4.45064 2.12321,-8.70277 5.92855,-7.77273 16.53741,-13.61879 30.22745,-16.65698 6.87614,-1.52599 13.37636,-3.64004 14.44493,-4.69787 3.99532,-3.95517 -0.55254,-5.05639 -26.91858,-6.5181 -15.57289,-0.86334 -25.61346,-1.94939 -25.49419,-2.75761 0.10821,-0.73333 4.27275,-3.39691 9.25452,-5.91905 7.5528,-3.82378 10.86094,-4.68035 19.91021,-5.15532 12.55053,-0.65873 31.9331,1.61355 39.46286,4.62636 6.21704,2.48757 7.62592,6.33985 5.3841,14.72174 -0.84798,3.1705 -1.54178,8.61665 -1.54178,12.10256 0,8.8095 -7.39408,19.77046 -19.20005,28.46207 -5.57759,4.10625 -5.44037,4.08786 -17.46661,2.34129 z m 13.37615,-7.11161 c 2.54312,-1.06259 4.62385,-2.86259 4.62385,-4 0,-2.76566 -2.38218,-2.60539 -8.63152,0.5807 -5.95664,3.03688 -13.74568,2.70778 -16.22698,-0.6856 -1.78963,-2.44746 -8.62569,-2.24184 -9.45452,0.28438 -1.63519,4.98394 20.18457,7.79179 29.68917,3.82052 z m -8.70949,-19.32702 c 2.57799,0.0174 7.94888,1.79794 12,3.97825 4.03334,2.17073 8.68334,3.94692 10.33334,3.94709 10.76139,0.001 -10.0744,-10.63157 -22.84196,-11.65643 -6.50606,-0.52224 -9.69028,-0.0852 -14.32921,1.96685 -5.99829,2.65333 -15.82884,10.35272 -15.82884,12.39732 0,0.60382 5.85,-1.54868 13,-4.78334 7.57747,-3.42805 14.94656,-5.86808 17.66667,-5.84974 z m -72.78429,-53.63165 c 5.20324,-6.07882 6.4463,-10.1046 2.45096,-7.93769 -4.41522,2.39463 -12.33334,12.3164 -12.33334,15.45424 0,1.82094 5.41572,-2.29827 9.88238,-7.51655 z m 21.08582,-15.70208 c 40.88407,-8.28058 63.46866,-9.98859 151.69847,-11.4725 28.96667,-0.48719 57.16667,-1.28569 62.66667,-1.77445 l 10,-0.88865 -10,-4.80542 c -5.5,-2.64298 -14.14062,-7.50991 -19.20138,-10.81541 -7.28664,-4.75935 -8.67393,-6.16355 -6.66667,-6.7479 1.39409,-0.40585 8.9648,-2.25867 16.82379,-4.11738 27.45792,-6.49401 30.41142,-10.03235 12.30971,-14.74724 -19.51866,-5.08397 -45.38146,-6.61308 -111.93212,-6.61789 -60.02558,-0.004 -65.20061,0.18366 -83.33333,3.02725 -26.51456,4.15802 -49.63007,9.2796 -51.83675,11.48519 -2.2569,2.25579 -1.0399,10.34637 1.92666,12.8084 1.68048,1.39467 2.74803,0.96965 6.36153,-2.53269 2.49511,-2.41836 5.7331,-4.20187 7.61203,-4.19278 7.69524,0.0372 25.26986,6.49398 25.26986,9.2839 0,3.64912 -19.95314,14.62519 -28.48737,15.67068 -3.03195,0.37142 -6.26263,1.61971 -7.1793,2.77397 -3.26283,4.10852 -1.14831,17.58896 2.75898,17.58896 1.00374,0 10.54789,-1.76672 21.20922,-3.92604 z m 86.59153,-28.72392 c -14.49866,-5.26419 -19.09222,-7.94627 -18.08863,-10.56157 0.73094,-1.9048 25.78419,-14.71545 31.66484,-16.1914 2.03197,-0.50999 5.37223,0.26868 9.0431,2.1081 8.72975,4.37435 23.82097,13.77849 23.82097,14.84412 0,3.31523 -22.76034,14.47537 -29.33334,14.38309 -2.56666,-0.036 -10.26479,-2.09809 -17.10694,-4.58234 z m 27.77361,-5.06946 c 4.08346,-1.65426 7.33333,-3.81551 7.33333,-4.87685 0,-3.13252 -13.65733,-7.93837 -22.758,-8.00826 -9.40857,-0.0722 -21.70917,3.19988 -22.80965,6.06769 -0.99936,2.6043 -0.68468,2.8504 8.44403,6.60379 10.02327,4.12121 19.96859,4.19253 29.79029,0.21363 z m -119,7.76773 c 3.85,-1.79243 7,-3.87116 7,-4.6194 0,-2.34108 -7.62185,-5.42891 -13.40046,-5.42891 -4.54919,0 -6.36547,0.83259 -10.2159,4.68302 -3.86787,3.86788 -4.39646,5.0283 -3.03674,6.66667 2.49261,3.00341 11.71904,2.39246 19.6531,-1.30138 z m 229.0785,0.0298 c 2.04728,-1.52025 2.28865,-2.42586 1.15499,-4.33333 -2.51759,-4.236 -10.0173,-7.27951 -16.34944,-6.63488 -7.66637,0.78046 -9.45025,2.63865 -6.11921,6.37412 5.33551,5.9833 16.26914,8.34001 21.31366,4.59409 z M 296.66667,250.63121 c 27.8401,-6.67174 36.03253,-7.22652 105.33334,-7.13306 66.29784,0.0894 83.77622,0.9939 115.71319,5.98803 l 18.85375,2.94825 11.95588,-13.21721 c 26.49215,-29.28705 52.97009,-52.51209 72.31116,-63.42752 3.94131,-2.22434 7.16603,-4.52193 7.16603,-5.10576 0,-2.24173 -6.59721,-2.5561 -13.87273,-0.66107 -9.48667,2.47097 -11.54579,2.46912 -16.3082,-0.0147 -7.49864,-3.91081 -12.59184,-1.58365 -14.5726,6.65845 -3.80216,15.82105 -18.71277,30.004 -31.53699,29.99793 -5.66112,-0.003 -12.79992,-3.6828 -16.23788,-8.37078 -3.69466,-5.03801 -3.478,-15.54278 0.49403,-23.95293 1.64318,-3.47919 6.86922,-10.51829 11.61341,-15.64246 4.96977,-5.3678 8.44111,-10.25471 8.19005,-11.52981 -0.23967,-1.21723 -3.43069,-3.77812 -7.09117,-5.69088 -3.66047,-1.91275 -7.12967,-4.07774 -7.70934,-4.81107 -0.57967,-0.73333 -0.67816,-5.91705 -0.21886,-11.51938 1.4589,-17.79525 -2.4383,-19.95563 -15.29858,-8.48062 L 517.23255,124 H 505.2411 c -14.43011,0 -15.06444,0.74851 -10.06858,11.88076 8.25081,18.38526 0.65029,42.8035 -15.80227,50.76805 -7.34183,3.55411 -21.82597,3.63011 -29.47821,0.15467 -10.18351,-4.62509 -19.4726,-19.21195 -19.61602,-30.80348 -0.10838,-8.75964 2.40805,-14.91563 10.42036,-25.49151 3.92126,-5.17588 6.8186,-10.22103 6.43854,-11.21144 -0.73249,-1.90883 -2.70342,-2.45863 -16.38716,-4.57126 -4.72207,-0.72904 -9.36405,-2.10399 -10.31551,-3.05545 -0.95146,-0.95146 -3.71073,-6.81269 -6.13171,-13.024956 -2.70628,-6.944348 -5.23547,-11.455582 -6.56617,-11.71185 -2.54892,-0.490877 -11.41162,10.512898 -12.5935,15.635866 -1.68602,7.30824 -3.97933,9.13861 -14.33722,11.44302 -5.46181,1.21514 -10.99969,2.9911 -12.30638,3.94658 -2.19238,1.6031 -1.8352,2.32874 4.62621,9.39855 10.24769,11.2126 12.79116,16.75954 12.82792,27.97579 0.0258,7.85766 -0.58702,10.45075 -3.87572,16.40084 -4.56375,8.25701 -12.06173,14.23111 -21.30711,16.97669 -7.88212,2.34074 -18.69676,2.44476 -23.80715,0.229 -5.58674,-2.4223 -18.01579,-15.38791 -19.72985,-20.58157 -1.72202,-5.21777 -0.81152,-15.74027 2.37043,-27.39462 1.15672,-4.23665 1.74999,-8.05614 1.31838,-8.48775 -0.43161,-0.43161 -4.53433,-0.12427 -9.11715,0.68298 -9.91889,1.74717 -12.55247,0.54668 -17.97253,-8.19264 -10.11549,-16.31022 -14.42166,-15.43243 -15.89407,3.23994 C 276.75091,143.24296 276.47997,144 272.28412,144 c -3.73841,0 -13.61745,5.78209 -13.61745,7.97014 0,0.66404 3.55675,3.94419 7.90388,7.28923 19.43158,14.95226 21.48979,43.01175 3.829,52.20065 -1.98025,1.03033 -4.84224,1.87332 -6.35997,1.87332 -4.14343,0 -26.21586,-11.49887 -27.37475,-14.26116 -0.55505,-1.32303 -1.30779,-8.83136 -1.67273,-16.68519 -0.53677,-11.55153 -1.12664,-14.69877 -3.0875,-16.47333 -2.26826,-2.05275 -2.92112,-1.90632 -10.16427,2.27968 l -7.74032,4.47333 -19.66667,-0.35783 c -10.81667,-0.19681 -19.64248,0.10319 -19.61292,0.66667 0.0296,0.56347 7.67956,5.93505 17,11.93684 20.98343,13.51204 46.40897,33.9854 68.27959,54.98066 10.76205,10.33131 17.37522,15.7468 18.66666,15.28605 1.1,-0.39244 9.2,-2.43898 18,-4.54785 z"
       id="path1" />
  </g>
</svg>
